<svg width="256" height="256" viewBox="0 0 256 256" fill="none" xmlns="http://www.w3.org/2000/svg">
<g clip-path="url(#clip0)">
<rect width="256" height="256" rx="20" fill="black"/>
<path d="M94.2 195C85.6667 195 79.2667 192.6 75 187.8C70.7333 182.867 68.6 176.533 68.6 168.8V43H93.4V158.6C93.4 163.933 93.6667 167.733 94.2 170C94.8667 172.133 95.9333 173.467 97.4 174C99 174.4 101.667 174.6 105.4 174.6L103.2 195H94.2ZM167.339 91.4C176.806 91.4 184.939 93.7333 191.739 98.4C198.539 103.067 203.672 109.333 207.139 117.2C210.606 125.067 212.339 133.733 212.339 143.2C212.339 152.667 210.606 161.333 207.139 169.2C203.672 177.067 198.539 183.333 191.739 188C184.939 192.667 176.806 195 167.339 195C161.339 195 156.206 194.333 151.939 193C147.806 191.8 143.806 189.8 139.939 187V241.4H115.139V93H135.139L137.739 102.2C142.006 98.6 146.472 95.9333 151.139 94.2C155.806 92.3333 161.206 91.4 167.339 91.4ZM163.539 174.6C170.872 174.6 176.606 171.733 180.739 166C184.872 160.267 186.939 152.667 186.939 143.2C186.939 133.733 184.872 126.133 180.739 120.4C176.606 114.667 170.872 111.8 163.539 111.8C155.272 111.8 149.072 114.6 144.939 120.2C140.806 125.8 138.739 133.467 138.739 143.2C138.739 152.933 140.806 160.6 144.939 166.2C149.072 171.8 155.272 174.6 163.539 174.6Z" fill="#F5F7FA"/>
</g>
<defs>
<clipPath id="clip0">
<rect width="256" height="256" fill="white"/>
</clipPath>
</defs>
</svg>
